<svg viewBox="0 0 120 120" xmlns="http://www.w3.org/2000/svg" role="img">
  <title>LinkLog — Wave-Flow</title>
  <desc>波浪形双L，海浪起伏感，尾端∞回卷</desc>

  <!-- L1 (Link) — 波浪飘落 -->
  <path d="M22,10
           C20,28 24,42 18,58
           C14,70 20,82 32,86
           C44,90 62,88 78,86
           C86,85 90,78 88,68
           C86,58 88,44 92,34
           C96,26 90,22 84,26
           C78,30 74,44 74,58
           C74,68 76,78 78,86"
        fill="none" stroke="#E8915A" stroke-width="4.5"
        stroke-linecap="round"/>

  <!-- L2 (Log) — 内层波浪 -->
  <path d="M34,20
           C32,34 36,44 30,56
           C26,64 30,72 40,74
           C50,76 62,75 70,74
           C76,73 78,68 76,60
           C74,52 76,42 80,36"
        fill="none" stroke="#7C6AE8" stroke-width="2.8"
        stroke-linecap="round" opacity="0.7"/>

  <!-- Intersection knot -->
  <circle cx="55" cy="80" r="4.5" fill="#FFFFFF" stroke="#E8915A" stroke-width="1.8"/>
  <circle cx="55" cy="80" r="2" fill="#5B8ED0"/>
</svg>
