<svg viewBox="0 0 200 110" xmlns="http://www.w3.org/2000/svg" role="img">
  <title>LinkLog — Full Logo Ribbon-Flow</title>

  <!-- Logo Mark: Ribbon-Flow -->
  <g transform="translate(5, 6)">
    <path d="M18,6
             C18,24 14,38 16,52
             C18,64 22,68 30,68
             C38,68 54,68 62,68
             C68,68 72,64 72,58
             C72,50 72,40 70,32
             C68,26 64,22 58,26
             C52,30 50,40 50,48
             C50,56 50,64 52,68"
          fill="none" stroke="#E8915A" stroke-width="4"
          stroke-linecap="round"/>
    <path d="M28,14
             C28,26 26,36 26,44
             C26,52 28,56 34,56
             C40,56 52,56 58,56
             C62,56 64,52 64,48
             C64,42 64,34 62,28"
          fill="none" stroke="#7C6AE8" stroke-width="2.5"
          stroke-linecap="round" opacity="0.7"/>
    <circle cx="42" cy="62" r="3.5" fill="#fff" stroke="#E8915A" stroke-width="1.5"/>
    <circle cx="42" cy="62" r="1.5" fill="#5B8ED0"/>
    <path d="M52,68 C52,74 56,78 62,76" fill="none" stroke="#E8915A" stroke-width="1.5" opacity="0.25" stroke-linecap="round"/>
  </g>

  <!-- Wordmark -->
  <text x="92" y="46" font-family="'Inter', -apple-system, 'Noto Sans SC', sans-serif"
        font-size="26" font-weight="700" fill="#2C2825">
    <tspan fill="#E8915A">Link</tspan><tspan fill="#7C6AE8">Log</tspan>
  </text>

  <!-- Tagline -->
  <text x="94" y="64"
        font-family="'Noto Sans SC', 'PingFang SC', Inter, -apple-system, sans-serif"
        font-size="10" font-weight="400" fill="#9E9893">
    连接日志 · 关系复利
  </text>
</svg>
