<svg viewBox="0 0 280 120" width="280" height="120" xmlns="http://www.w3.org/2000/svg">
<title>LinkLog Logo — V2 Infinity</title>

<path d="M28,52 C28,30 50,16 68,24 C86,32 90,60 68,68 C46,76 24,62 24,42 C24,22 46,8 68,16 C90,24 96,52 68,60 C40,68 12,54 12,34" fill="none" stroke="#E8915A" stroke-width="2.5" stroke-linecap="round"/>
<path d="M48,44 Q68,30 88,48" fill="none" stroke="#7C6AE8" stroke-width="1.5" stroke-linecap="round" stroke-dasharray="4 3"/>
<path d="M88,56 Q68,70 48,52" fill="none" stroke="#5B8ED0" stroke-width="1.2" stroke-linecap="round" stroke-dasharray="3 4"/>

<circle cx="24" cy="42" r="8" fill="#E8915A" opacity=".85"/>
<circle cx="112" cy="62" r="8" fill="#7C6AE8" opacity=".75"/>
<circle cx="68" cy="16" r="5" fill="#5B8ED0" opacity=".65"/>
<circle cx="68" cy="88" r="5" fill="#D4CFC8" opacity=".55"/>

<text x="132" y="54" font-family="Inter,-apple-system,'Noto Sans SC','PingFang SC',sans-serif" font-size="26" font-weight="700" fill="#2C2825">Link<tspan fill="#E8915A">Log</tspan></text>
<text x="132" y="74" font-family="'Noto Sans SC','PingFang SC',Inter,-apple-system,sans-serif" font-size="12" font-weight="400" fill="#9E9893">连接日志 · 关系复利</text>
</svg>
