<svg viewBox="0 0 280 120" width="280" height="120" xmlns="http://www.w3.org/2000/svg">
<title>LinkLog Logo — V3 Constellation</title>

<line x1="18" y1="50" x2="52" y2="38" stroke="#E8915A" stroke-width="2" stroke-linecap="round" opacity=".7"/>
<line x1="52" y1="38" x2="86" y2="54" stroke="#7C6AE8" stroke-width="1.6" stroke-linecap="round" opacity=".6"/>
<line x1="18" y1="50" x2="86" y2="54" stroke="#5B8ED0" stroke-width="1" stroke-linecap="round" stroke-dasharray="4 3" opacity=".5"/>
<line x1="52" y1="38" x2="68" y2="8" stroke="#D4CFC8" stroke-width=".8" stroke-linecap="round" stroke-dasharray="2 3" opacity=".4"/>
<line x1="86" y1="54" x2="106" y2="34" stroke="#9E9893" stroke-width=".8" stroke-linecap="round" opacity=".35"/>
<line x1="18" y1="50" x2="4" y2="74" stroke="#9E9893" stroke-width=".8" stroke-linecap="round" opacity=".3"/>

<circle cx="18" cy="50" r="14" fill="#FDF0E6" stroke="#E8915A" stroke-width="2.5"/>
<circle cx="18" cy="50" r="5.5" fill="#E8915A"/>

<circle cx="52" cy="38" r="19" fill="#F0EDFC" stroke="#7C6AE8" stroke-width="2.2"/>
<circle cx="52" cy="38" r="6.5" fill="#7C6AE8" opacity=".35"/>

<circle cx="86" cy="54" r="11" fill="#E8F0FA" stroke="#5B8ED0" stroke-width="1.8"/>
<circle cx="86" cy="54" r="4" fill="#5B8ED0" opacity=".35"/>

<circle cx="68" cy="8" r="7" fill="#FEF7F0" stroke="#D4CFC8" stroke-width="1.2"/>
<circle cx="68" cy="8" r="2.5" fill="#D4CFC8" opacity=".4"/>

<circle cx="106" cy="34" r="6" fill="#FDF0E6" stroke="#E8915A" stroke-width="1" opacity=".5"/>
<circle cx="106" cy="34" r="2" fill="#E8915A" opacity=".3"/>

<circle cx="4" cy="74" r="6" fill="#F0EDFC" stroke="#7C6AE8" stroke-width="1" opacity=".5"/>
<circle cx="4" cy="74" r="2" fill="#7C6AE8" opacity=".3"/>

<text x="124" y="48" font-family="Inter,-apple-system,'Noto Sans SC','PingFang SC',sans-serif" font-size="26" font-weight="700" fill="#2C2825">Link<tspan fill="#E8915A">Log</tspan></text>
<text x="124" y="68" font-family="'Noto Sans SC','PingFang SC',Inter,-apple-system,sans-serif" font-size="12" font-weight="400" fill="#9E9893">连接日志 · 关系复利</text>
</svg>
