<svg viewBox="0 0 280 120" width="280" height="120" xmlns="http://www.w3.org/2000/svg">
<title>LinkLog Logo — V1 Orbital</title>

<path d="M48,42 C30,7 3,4 -10,20 C-24,37 -12,67 16,76 C43,85 68,72 74,52 C78,39 72,26 62,20" fill="none" stroke="#E8915A" stroke-width="2.5" stroke-linecap="round"/>
<path d="M-4,27 C8,44 30,37 40,24 C50,11 46,-2 34,-6 C22,-10 12,-1 12,11" fill="none" stroke="#7C6AE8" stroke-width="1.8" stroke-linecap="round"/>

<circle cx="-6" cy="25" r="11" fill="#FDF0E6" stroke="#E8915A" stroke-width="2.5"/>
<circle cx="-6" cy="25" r="4" fill="#E8915A"/>

<circle cx="76" cy="50" r="13" fill="#F0EDFC" stroke="#7C6AE8" stroke-width="2"/>
<circle cx="76" cy="50" r="4.5" fill="#7C6AE8"/>

<circle cx="32" cy="-4" r="9" fill="#E8F0FA" stroke="#5B8ED0" stroke-width="1.5"/>
<circle cx="32" cy="-4" r="3" fill="#5B8ED0"/>

<circle cx="48" cy="42" r="7" fill="#2C2825"/>
<circle cx="48" cy="42" r="3" fill="#F8F6F3"/>

<text x="100" y="52" font-family="Inter,-apple-system,'Noto Sans SC','PingFang SC',sans-serif" font-size="26" font-weight="700" fill="#2C2825">Link<tspan fill="#E8915A">Log</tspan></text>
<text x="100" y="72" font-family="'Noto Sans SC','PingFang SC',Inter,-apple-system,sans-serif" font-size="12" font-weight="400" fill="#9E9893">连接日志 · 关系复利</text>
</svg>
